<?xml version="1.0" encoding="UTF-8"?> <svg xmlns="http://www.w3.org/2000/svg" fill-rule="evenodd" viewBox="0 0 100 100"><path d="M95.162 24.794a5.659 5.659 0 0 0-2.748-3.126c-1.304-.662-2.759-.756-4.096-.267l-16.474 6.034c-.573.21-.938.733-.978 1.305l-20.187 7.398a572.796 572.796 0 0 0-3.396-8.234l8.834-10.534a1.498 1.498 0 0 0-1.149-2.464H9.974a1.5 1.5 0 0 0-1.149 2.464l8.834 10.534C15.603 32.771 5.761 56.355 4.158 65.533c-1.093 6.254.41 12.376 4.124 16.796 3.617 4.304 8.949 6.675 15.013 6.675h17.669c6.191 0 11.889-2.555 15.633-7.009 3.772-4.488 5.261-10.334 4.191-16.462-.807-4.609-3.689-12.848-6.62-20.527l19.924-7.52c.28.279.652.452 1.049.452.171 0 .346-.03.516-.092l16.479-6.034c2.721-1 4.078-4.148 3.026-7.018zM13.19 17.906h38.563l-6.909 8.238H20.098l-6.908-8.238zM54.3 80.065c-3.219 3.83-7.956 5.939-13.336 5.939H23.295c-5.163 0-9.679-1.991-12.716-5.605-2.164-2.575-3.402-5.757-3.692-9.237h51.124c-.337 3.308-1.583 6.37-3.711 8.903zm3.778-11.903H6.855c.051-.697.134-1.401.258-2.112 1.521-8.711 11.228-32.031 13.28-36.906H44.55c.943 2.24 3.499 8.368 6.139 15.194.014.116.038.232.081.347.041.108.104.199.165.292 3.026 7.86 6.095 16.49 6.897 21.073.124.71.201 1.413.246 2.112zm-6.282-29.238 19.978-7.322 1.143 3.121-19.828 7.484a570.814 570.814 0 0 0-1.293-3.283zm39.307-9.929-15.069 5.518-1.749-4.776 15.066-5.518c.546-.201 1.152-.156 1.705.125.59.3 1.048.826 1.289 1.483.483 1.318-.075 2.739-1.242 3.168z"></path></svg> 